<svg xmlns="http://www.w3.org/2000/svg" viewBox="0 0 3430.87 758.07"><defs><style>.cls-1{fill:#1b3b6f;}.cls-2,.cls-5,.cls-9{fill:#fff;}.cls-2{fill-rule:evenodd;}.cls-3{fill:#f9f9f9;}.cls-4,.cls-5{isolation:isolate;}.cls-5{font-size:439.44px;font-family:CenturyGothicPaneuropean-Bold, Century Gothic Paneuropean;font-weight:700;letter-spacing:0.08em;}.cls-6{letter-spacing:0.07em;}.cls-7{letter-spacing:0.04em;}.cls-8{letter-spacing:0.08em;}</style></defs><g id="Layer_2" data-name="Layer 2"><g id="Layer_1-2" data-name="Layer 1"><g id="g29"><g id="g46"><rect id="rect44" class="cls-1" width="758.07" height="758.07"/><g id="g44"><path id="path40" class="cls-2" d="M399.48,454.62V209.53H556.34V454.62c0,134.8-110.29,245.09-245.09,245.09H168V542.85h143.3c48.22,0,88.23-40,88.23-88.23"/><rect id="rect45" class="cls-3" x="242.04" y="52.07" width="157.44" height="157.44"/></g></g><g id="g1"><g id="text45" class="cls-4"><text class="cls-5" transform="translate(854.46 428.04)">JI<tspan class="cls-6" x="411.75" y="0">G</tspan><tspan class="cls-7" x="810.76" y="0">G</tspan><tspan class="cls-8" x="1196.59" y="0">A</tspan><tspan class="cls-7" x="1534.95" y="0">B</tspan><tspan x="1806.52" y="0">YTE</tspan></text></g><g id="text46" class="cls-4"><g class="cls-4"><path class="cls-9" d="M866.59,553.09V538.72h76v14.37ZM897,646.41V547.53h15.11v98.88Z"/><path class="cls-9" d="M999.56,646.41V538.72h15.1V646.41Zm7.33-93.32V538.72h61.84v14.37Zm0,47V585.75h53.69v14.37Zm0,46.29V632h61.84v14.37Z"/><path class="cls-9" d="M1167.63,647.52a38,38,0,0,1-19.7-5,34.07,34.07,0,0,1-13.11-14,45.39,45.39,0,0,1-4.67-21.1V577.83q0-12.15,4.67-21.19a34.1,34.1,0,0,1,13.11-14,38,38,0,0,1,19.7-5,36.32,36.32,0,0,1,30,15.18,41.51,41.51,0,0,1,7.07,16.81h-15.48a23.19,23.19,0,0,0-4.7-9.07,23.47,23.47,0,0,0-7.74-6,20.74,20.74,0,0,0-9.18-2.15q-9.93,0-16,7t-6,18.48v29.55q0,11.48,6,18.44t16,7a22.38,22.38,0,0,0,13.25-4.44,21.76,21.76,0,0,0,8.37-12.82h15.48a41.13,41.13,0,0,1-7.11,16.82,37,37,0,0,1-13,11.18A36.45,36.45,0,0,1,1167.63,647.52Z"/><path class="cls-9" d="M1266.9,646.41V538.72H1282V646.41Zm9.4-45.85V586.2h59.77v14.36Zm51.77,45.85V538.72h15.11V646.41Z"/><path class="cls-9" d="M1412,646.33V538.72h13.7L1478.37,622l-1.78,1.92V538.72h15V646.33H1477.7l-52.51-82,1.78-1.93v83.91Z"/><path class="cls-9" d="M1596,647.52a39,39,0,0,1-19.92-4.93,33.84,33.84,0,0,1-13.22-13.88,44.41,44.41,0,0,1-4.7-20.89V577.31a44.38,44.38,0,0,1,4.7-20.93,33.92,33.92,0,0,1,13.22-13.84,42.73,42.73,0,0,1,39.85,0,34,34,0,0,1,13.22,13.84,44.38,44.38,0,0,1,4.7,20.93v30.51a44.41,44.41,0,0,1-4.7,20.89,33.9,33.9,0,0,1-13.22,13.88A39,39,0,0,1,1596,647.52Zm0-14.89q10.15,0,16.26-6.66t6.11-17.63V576.79q0-11-6.11-17.66T1596,552.5q-10.07,0-16.21,6.63t-6.15,17.66v31.55q0,11,6.15,17.63T1596,632.63Z"/><path class="cls-9" d="M1699,646.41V538.72h15.1V646.41Zm7.55,0V632h61.62v14.37Z"/><path class="cls-9" d="M1860.75,647.52a39,39,0,0,1-19.92-4.93,33.84,33.84,0,0,1-13.22-13.88,44.29,44.29,0,0,1-4.7-20.89V577.31q0-12,4.7-20.93a33.92,33.92,0,0,1,13.22-13.84,42.73,42.73,0,0,1,39.85,0,34,34,0,0,1,13.22,13.84,44.38,44.38,0,0,1,4.7,20.93v30.51a44.41,44.41,0,0,1-4.7,20.89,33.9,33.9,0,0,1-13.22,13.88A39,39,0,0,1,1860.75,647.52Zm0-14.89q10.15,0,16.26-6.66t6.11-17.63V576.79q0-11-6.11-17.66t-16.26-6.63q-10.07,0-16.22,6.63t-6.14,17.66v31.55q0,11,6.14,17.63T1860.75,632.63Z"/><path class="cls-9" d="M1998.53,588.42h37.33v18.81a45.56,45.56,0,0,1-4.7,21.22A34.31,34.31,0,0,1,2018,642.52a38.26,38.26,0,0,1-19.85,5,41.22,41.22,0,0,1-20.07-4.7,33.17,33.17,0,0,1-13.33-13.26,40.52,40.52,0,0,1-4.74-20V577.83q0-12.15,4.7-21.19a34.39,34.39,0,0,1,13.15-14,38.28,38.28,0,0,1,19.85-5,36.47,36.47,0,0,1,30.14,15.18A41.15,41.15,0,0,1,2035,569.6H2018.6q-2.07-8.36-8.07-12.81a21.15,21.15,0,0,0-12.81-4.44q-10.08,0-16.15,7t-6.07,18.48V609.6q0,10.51,6.22,16.85t16.44,6.33q10.08,0,16.15-6.67t6.07-18.59v-4.66h-21.85Z"/><path class="cls-9" d="M2167.64,538.72l-32.81,63.92v43.77h-15.11V602.64l-32.8-63.92h16.81l23.55,48.59,23.55-48.59Z"/><path class="cls-9" d="M2303.82,646.41V538.72h15.11V646.41Zm7.55,0V632H2373v14.37Z"/><path class="cls-9" d="M2448,538.72V646.41h-15.11V538.72Z"/><path class="cls-9" d="M2562.64,609.82l31.63-71.1h14.14V646.41h-14.74V565.75l.75,4.74-26.52,61h-10.52L2530.87,572l.74-6.22v80.66h-14.74V538.72H2531Z"/><path class="cls-9" d="M2692.35,538.72V646.41h-15.11V538.72Z"/><path class="cls-9" d="M2752.29,553.09V538.72h76v14.37Zm30.44,93.32V547.53h15.11v98.88Z"/><path class="cls-9" d="M2885.26,646.41V538.72h15.11V646.41Zm7.33-93.32V538.72h61.84v14.37Zm0,47V585.75h53.7v14.37Zm0,46.29V632h61.84v14.37Z"/><path class="cls-9" d="M3018.08,646.41V538.72h15.11V646.41Zm10.22,0V632h24.37q11.91,0,18.47-6.18t6.56-17.45v-31.7q0-11.25-6.56-17.44t-18.47-6.18H3028.3V538.72h23.92q19.56,0,30.26,10.11t10.7,28.48v30.51q0,12.23-4.82,20.85a31.72,31.72,0,0,1-14,13.18q-9.2,4.56-22.22,4.56Z"/></g></g></g></g></g></g></svg>